<svg width="42" height="34" viewBox="0 0 42 34" fill="none" xmlns="http://www.w3.org/2000/svg">
<path d="M24.4897 16.8895L23.3309 15.9646C23.3062 15.9468 23.2733 15.9557 23.2651 15.9913C22.1967 19.6997 21.1118 24.0662 20.5529 27.9525C20.5447 27.9881 20.5365 27.9881 20.5365 27.9525C20.0187 24.3241 19.0324 20.2689 18.038 16.7294C18.0298 16.6938 17.9969 16.6849 17.9722 16.7116L17.5284 17.1029C17.5037 17.1296 17.4873 17.1741 17.4873 17.2096L18.9092 29.3843C18.9174 29.4199 18.942 29.4465 18.9749 29.4376C19.5091 29.3754 19.9858 29.4021 20.3064 29.4554C20.3392 29.4643 20.3639 29.4821 20.3639 29.4999C20.3639 29.5177 20.3885 29.5266 20.4214 29.5266C20.4379 29.5177 20.4625 29.5177 20.4954 29.5088C20.5283 29.4999 20.5776 29.4999 20.6104 29.5088C20.6351 29.5177 20.6598 29.5177 20.6844 29.5266C20.7173 29.5355 20.7419 29.5266 20.7419 29.4999C20.7419 29.4821 20.7666 29.4554 20.7995 29.4554C21.3008 29.3843 22.172 29.3398 23.0761 29.6689C23.109 29.6777 23.1336 29.66 23.1418 29.6244C23.3555 27.5256 23.8076 23.8083 24.5555 16.9962C24.5308 16.9606 24.5144 16.9073 24.4897 16.8895Z" fill="black"/>
<path d="M27.4785 25.5516L26.8867 30.9586C26.8867 30.9942 26.9032 31.012 26.936 31.0031C27.2977 30.8608 27.6593 30.7452 28.0291 30.6474C28.062 30.6385 28.0867 30.6029 28.0785 30.5674L27.4949 25.5605C27.4867 25.5161 27.4785 25.5161 27.4785 25.5516Z" fill="black"/>
<path d="M33.7237 13.6084C33.7073 13.5817 33.6826 13.5817 33.6826 13.6173C33.6415 14.0352 33.4607 14.4265 33.1484 14.7111L30.4444 17.0945C30.4197 17.1212 30.4033 17.1656 30.4033 17.2012L31.932 30.2829C31.9402 30.3185 31.9649 30.3452 31.9978 30.3541C33.1895 30.4252 34.373 30.2651 35.0469 29.5359C36.6742 27.7751 40.5289 29.3047 41.0384 29.5092C41.0713 29.5181 41.0877 29.5003 41.0877 29.4648C40.5289 24.3868 36.8715 18.1527 33.7237 13.6084Z" fill="black"/>
<path d="M14.5523 25.5511L13.9688 30.8514C13.9688 30.887 13.9852 30.9226 14.0181 30.9404C14.1989 31.0115 14.3797 31.0827 14.5523 31.1627C14.7495 31.2516 14.9632 31.3139 15.1769 31.3139C15.2098 31.3139 15.2344 31.2872 15.2262 31.2516L14.5605 25.5511C14.5605 25.5156 14.5523 25.5156 14.5523 25.5511Z" fill="black"/>
<path d="M11.572 16.8899L8.90093 14.7644C8.24343 14.2486 8.09549 13.2348 8.56396 12.5234C9.88718 10.4958 10.6926 9.24184 11.2268 8.45035C11.2433 8.42367 11.2433 8.42367 11.2186 8.45035C8.58862 11.7052 0.838315 21.8878 0 29.4825C0 29.5181 0.0164481 29.5359 0.0493232 29.527C0.558887 29.3135 4.41349 27.7928 6.0408 29.5537C6.75584 30.3274 8.02974 30.4696 9.28722 30.3629C9.55022 30.3451 9.81322 30.3274 10.0762 30.3274C10.1091 30.3274 10.142 30.3007 10.142 30.2651C10.3228 28.2997 10.783 24.5646 11.6131 17.0144C11.6131 16.961 11.5967 16.9077 11.572 16.8899Z" fill="black"/>
<path d="M27.5035 6.49315C28.9582 6.49315 30.1417 5.21255 30.1417 3.63847C30.1417 2.06439 28.9582 0.783783 27.5035 0.783783C26.0487 0.783783 24.8652 2.06439 24.8652 3.63847C24.8652 5.21255 26.0487 6.49315 27.5035 6.49315ZM25.4816 4.7679H27.3309C27.3637 4.7679 27.3884 4.79457 27.3884 4.83014C27.3637 5.05247 27.224 5.77281 26.4104 5.77281C25.5967 5.77281 25.457 5.05247 25.4323 4.83014C25.4241 4.79457 25.4488 4.7679 25.4816 4.7679Z" fill="black"/>
<path d="M29.9467 17.004C29.9467 16.9684 29.9631 16.924 29.9878 16.8973L32.8726 14.345C33.3082 13.9626 33.3986 13.2778 33.0698 12.7798C29.6426 7.53285 29.7741 7.52396 29.1905 7.40835C29.0015 7.37278 25.9606 7.38167 25.8291 7.39056C25.114 7.44392 25.1305 7.71071 21.8265 12.7798C21.4896 13.2956 21.5964 14.007 22.0649 14.3805L24.9414 16.6661C24.9661 16.6838 24.9825 16.7372 24.9825 16.7728L23.3716 31.4019C23.273 32.2912 23.8648 33.1005 24.6866 33.2072C24.7442 33.2161 24.8099 33.2161 24.8675 33.2161C25.6154 33.2161 26.2646 32.6114 26.3551 31.7843L27.4646 21.7351C27.4646 21.6996 27.4728 21.6996 27.481 21.7351L28.6563 31.7932C28.7549 32.6114 29.396 33.2161 30.1439 33.2161C30.2097 33.2161 30.2672 33.2161 30.333 33.2072C31.1548 33.0916 31.7384 32.2823 31.6315 31.393L29.9467 17.004ZM25.0894 13.8469C25.0894 13.8825 25.0647 13.8914 25.0401 13.8736L24.2264 13.2244C24.2017 13.2066 24.1935 13.1622 24.21 13.1355L25.0483 11.8549C25.0647 11.8282 25.0812 11.8282 25.0812 11.8638V13.8469H25.0894ZM29.8069 13.9981V11.8638C29.8069 11.8282 29.8234 11.8193 29.8398 11.8549L30.711 13.1889C30.7275 13.2155 30.7274 13.26 30.7028 13.2867L29.8563 14.0337C29.8234 14.0515 29.8069 14.0337 29.8069 13.9981Z" fill="black"/>
<path d="M14.5826 6.49315C16.0373 6.49315 17.2208 5.21255 17.2208 3.63847C17.2208 2.06439 16.0373 0.783783 14.5826 0.783783C13.1278 0.783783 11.9443 2.06439 11.9443 3.63847C11.9443 5.21255 13.1278 6.49315 14.5826 6.49315ZM14.6401 4.7679H16.4893C16.5222 4.7679 16.5469 4.79457 16.5469 4.83014C16.5222 5.05247 16.3825 5.77281 15.5688 5.77281C14.7552 5.77281 14.6154 5.05247 14.5908 4.83014C14.5826 4.79457 14.6072 4.7679 14.6401 4.7679Z" fill="black"/>
<path d="M17.0267 17.004C17.0185 16.9684 17.0432 16.924 17.0678 16.8973L19.9526 14.345C20.3882 13.9626 20.4786 13.2778 20.1499 12.7798C16.7227 7.53285 16.8541 7.52396 16.2706 7.40835C16.0816 7.37278 13.0406 7.38167 12.9091 7.39056C12.1941 7.44392 12.2105 7.71071 8.9066 12.7798C8.56963 13.2956 8.67647 14.007 9.14494 14.3805L12.0215 16.6661C12.0462 16.6838 12.0626 16.7372 12.0626 16.7728L10.4517 31.4019C10.3531 32.2912 10.9449 33.1005 11.7667 33.2072C11.8243 33.2161 11.89 33.2161 11.9475 33.2161C12.6955 33.2161 13.3447 32.6114 13.4351 31.7843L14.5447 21.7351C14.5447 21.6996 14.5529 21.6996 14.5611 21.7351L15.7364 31.7932C15.835 32.6114 16.4761 33.2161 17.224 33.2161C17.2897 33.2161 17.3473 33.2161 17.413 33.2072C18.2349 33.0916 18.8184 32.2823 18.7116 31.393L17.0267 17.004ZM12.1695 13.8469C12.1695 13.8825 12.1448 13.8914 12.1201 13.8736L11.3065 13.2244C11.2818 13.2066 11.2736 13.1622 11.29 13.1355L12.1284 11.8549C12.1448 11.8282 12.1612 11.8282 12.1612 11.8638V13.8469H12.1695ZM16.887 13.9981V11.8638C16.887 11.8282 16.9035 11.8193 16.9199 11.8549L17.7911 13.1889C17.8075 13.2155 17.8075 13.26 17.7829 13.2867L16.9363 14.0337C16.9035 14.0515 16.887 14.0337 16.887 13.9981Z" fill="black"/>
</svg>
