<svg width="786" height="381" viewBox="0 0 786 381" fill="none" xmlns="http://www.w3.org/2000/svg">
<path d="M368.406 83.1435C367.463 83.1435 367.306 82.5148 367.777 81.8861L379.251 65.8548C379.722 65.2261 379.565 64.9118 378.936 65.5405L361.333 78.114C360.705 78.5855 359.919 78.2712 359.762 77.4854L356.147 56.1103C355.99 55.3245 355.832 55.3245 355.675 56.1103L351.274 82.9863C351.117 83.7722 350.646 84.8724 350.331 85.3439C350.017 85.8154 349.86 85.6582 349.86 84.7152C347.188 32.5348 334.929 12.7314 331.157 8.01634C330.685 7.38766 330.214 7.54484 330.214 8.33069L331.785 43.5367C331.785 44.4797 331.157 44.9512 330.214 44.9512C325.341 44.9512 320.469 47.3088 317.797 51.8667L283.377 109.705C282.906 110.491 282.12 110.491 281.648 109.705L271.589 94.9312C271.118 94.1453 271.432 93.5167 272.218 93.3595C287.778 89.7446 299.408 75.7565 299.408 59.0965C299.408 39.6075 283.691 23.8905 264.202 23.8905C248.171 23.8905 234.812 34.578 230.411 49.1948C230.097 49.9806 229.311 50.6093 228.368 50.6093C227.582 50.6093 226.953 50.4522 226.167 50.4522C223.81 50.4522 221.452 50.7665 219.095 51.238C218.309 51.3952 216.894 51.7095 215.951 51.7095C193.947 53.7527 134.852 66.6406 112.219 146.011C96.6594 200.549 13.9881 197.406 1.5717 196.62C0.785855 196.62 0 197.249 0 198.035C0.314339 211.237 5.02945 303.181 71.3551 294.537C95.0877 291.393 116.306 356.462 119.763 367.306C120.078 368.092 120.392 368.092 120.549 367.306C124.321 350.804 157.484 205.579 194.105 113.477C194.419 112.691 194.733 112.691 194.733 113.634V181.532C194.733 181.846 194.733 182.318 194.733 182.632V266.718C194.733 267.661 194.419 268.918 193.947 269.704L155.598 339.487C150.254 349.232 153.869 361.334 163.457 366.678C166.443 368.407 169.9 369.192 173.044 369.192C180.117 369.192 187.032 365.42 190.647 358.819L232.297 283.221C233.869 280.234 234.812 276.934 234.812 273.633V213.909C234.812 212.966 235.126 212.966 235.597 213.752L262.945 263.574C263.417 264.36 263.731 265.618 263.888 266.561L272.375 342.002C273.475 352.218 282.12 359.762 292.336 359.762C293.122 359.762 293.907 359.762 294.536 359.605C305.538 358.348 313.396 348.446 312.139 337.444L303.023 256.502C302.709 253.83 301.923 251.315 300.666 249.115L258.387 172.259C257.916 171.473 257.601 170.215 257.601 169.272V127.308C257.601 126.365 258.073 126.365 258.544 126.994L271.432 145.854C274.104 149.783 278.505 152.141 283.22 152.141C288.564 151.984 292.964 149.312 295.479 145.226L332.414 83.1435C332.885 82.3576 333.2 82.5148 333.357 83.3007L339.329 218.309C339.329 219.253 339.487 219.253 339.644 218.309C348.288 164.872 350.646 124.322 349.86 93.6739C349.86 92.7308 350.017 92.4165 350.174 92.7308C350.331 93.0452 350.803 93.9882 350.803 94.774L355.204 121.65C355.361 122.436 355.518 122.436 355.675 121.65L359.29 100.275C359.447 99.4891 360.076 99.1748 360.862 99.6463L378.465 112.22C379.093 112.691 379.408 112.534 378.779 111.906L367.306 95.8742C366.834 95.2455 367.149 94.6168 367.934 94.6168L555.124 89.1159C556.067 89.1159 556.067 89.116 555.124 88.9588L368.406 83.1435Z" fill="#353159"/>
<path d="M783.491 350.331L745.142 280.548C744.67 279.762 744.356 278.505 744.356 277.562V193.633C744.356 193.162 744.356 192.847 744.356 192.376V92.7301C744.356 76.3845 731.782 62.8679 715.908 61.4534C715.122 61.2962 714.808 60.8247 715.437 60.196C721.881 53.752 725.81 44.9505 725.81 35.206C725.81 15.7169 710.093 0 690.604 0C677.559 0 666.242 7.07259 660.27 17.4458C659.798 18.2316 660.27 18.8603 661.056 18.8603H691.861C696.419 18.8603 700.034 22.4752 700.034 27.0332C700.034 31.5911 696.419 35.206 691.861 35.206H657.127C656.184 35.206 655.555 35.8347 655.555 36.7777C656.341 52.9662 667.814 66.1684 683.06 69.469C683.845 69.6262 684.003 69.9405 683.06 70.2548L643.453 83.4571C642.667 83.7714 641.252 83.9286 640.467 83.7714L576.97 79.0564C569.112 78.5848 562.196 84.4001 561.567 92.2586C560.939 100.117 566.911 107.033 574.77 107.661L642.667 112.691C642.981 112.691 643.453 112.691 643.767 112.691C645.339 112.691 646.911 112.376 648.325 111.905L679.916 101.374C680.702 101.06 681.331 101.532 681.331 102.475V179.488C681.331 180.431 681.016 181.688 680.545 182.474L638.266 259.33C637.323 261.059 636.537 262.945 636.223 264.988L617.363 355.518C615.162 366.363 622.078 376.893 632.922 379.25C634.337 379.565 635.594 379.722 637.009 379.722C646.282 379.722 654.612 373.278 656.655 363.691L674.572 277.562C674.73 276.776 675.201 275.361 675.673 274.575L703.492 223.967C703.963 223.181 704.278 223.338 704.278 224.124V284.477C704.278 287.778 705.063 291.235 706.792 294.065L748.442 369.663C752.057 376.264 758.973 380.036 766.045 380.036C769.346 380.036 772.646 379.25 775.633 377.522C785.377 372.335 788.835 360.076 783.491 350.331Z" fill="#353159"/>
</svg>
