<svg width="673" height="818" viewBox="0 0 673 818" fill="none" xmlns="http://www.w3.org/2000/svg">
<g clip-path="url(#clip0_303_10911)">
<path d="M348.613 27.0394C349.982 25.8977 351.703 25.1447 353.611 24.9706C358.624 24.5132 363.055 28.2013 363.513 33.2132C363.913 37.6098 361.119 41.5651 357.041 42.7715C354.506 41.6784 351.574 40.8242 348.241 40.221L348.613 27.0394ZM357.742 35.3791L358.77 34.7354C357.762 33.1241 351.958 33.452 349.512 33.6666L349.618 34.8771C353.562 34.5289 357.357 34.7637 357.742 35.3791Z" fill="#353159"/>
<path d="M339.06 49.6659L338.894 55.609C338.886 55.9329 338.914 56.2648 338.979 56.5927C338.797 62.7828 338.408 81.1302 339.246 105.554C329.919 104.263 320.41 105.247 317.081 105.676C318.855 98.7043 328.368 62.4508 336.921 51.8601C337.594 51.0221 338.315 50.2975 339.06 49.6659Z" fill="#353159"/>
<path d="M368.231 55.1515C368.295 55.2199 368.364 55.2884 368.429 55.3568C368.376 55.3649 368.328 55.3689 368.275 55.3769C368.263 55.3004 368.247 55.228 368.231 55.1515Z" fill="#353159"/>
<path d="M366.972 67.568C365.991 66.9769 364.874 66.6652 363.728 66.6652C362.428 66.6652 361.176 67.0619 360.111 67.8109L359.884 67.9688C359.921 66.1875 360.071 64.5033 360.285 62.9528C361.087 63.9001 362.306 64.475 363.622 64.5033C363.914 64.5114 364.246 64.5155 364.61 64.5155C367.547 64.5155 371.102 64.2442 374.01 63.22C382.134 75.1547 400.719 96.7327 404.521 101.117C398.795 104.303 366.036 121.861 356.252 112.449C354.996 111.238 353.538 110.214 351.939 109.348C351.611 101.048 351.4 92.7167 351.315 84.4215C351.716 84.6887 352.145 84.9114 352.607 85.0854C353.316 85.3526 354.057 85.4862 354.814 85.4862C355.138 85.4862 355.462 85.4619 355.782 85.4093L354.462 95.6113C354.016 99.0444 356.45 102.194 359.88 102.639C360.148 102.676 360.423 102.692 360.69 102.692C363.833 102.692 366.506 100.34 366.911 97.2226L369.948 73.7418C370.276 71.2804 369.102 68.8554 366.972 67.568Z" fill="#353159"/>
<path d="M340.198 56.4794C340.133 56.2122 340.101 55.9328 340.109 55.6414L341.595 3.14562C341.644 1.38861 343.086 0 344.831 0C344.864 0 344.892 0 344.924 0C346.714 0.0485809 348.124 1.54244 348.071 3.32779L346.994 41.3667C347.306 41.3302 347.63 41.3343 347.958 41.395C348.124 41.4233 348.282 41.4598 348.444 41.4922L350.671 45.2815L354.45 43.0629C359.617 44.8604 363.286 47.5243 365.38 51.0221C366.599 53.0625 367.085 55.0422 367.219 56.698C369.308 56.5239 371.183 56.1757 372.026 55.7669C372.305 54.3702 373.492 53.2771 374.978 53.1718C376.764 53.0463 378.311 54.3944 378.433 56.1798C378.53 57.617 378.02 58.9975 376.991 60.0743C374.306 62.888 368.016 63.2928 364.611 63.2928C364.258 63.2928 363.934 63.2888 363.651 63.2807C362.606 63.2564 361.622 62.7827 361.035 61.9245C360.455 61.0784 360.298 60.0622 360.63 59.0946C360.634 59.0865 360.634 59.0784 360.638 59.0663C360.69 58.8598 360.974 57.6251 360.549 56.0502C359.625 59.1311 358.475 64.2685 358.69 70.2885L360.816 68.7906C362.456 67.6327 364.627 67.5558 366.348 68.5963C368.069 69.6327 369.013 71.588 368.754 73.5799L365.716 97.0606C365.388 99.6111 363.209 101.473 360.703 101.473C360.488 101.473 360.265 101.461 360.046 101.433C357.272 101.073 355.316 98.5383 355.677 95.7651L357.244 83.6523C355.96 84.3486 354.429 84.462 353.044 83.9438C351.663 83.4256 350.59 82.3365 350.084 80.9763C350.161 93.1863 350.529 108.862 351.578 126.476C351.744 129.266 349.618 131.662 346.824 131.828C346.723 131.836 346.621 131.836 346.52 131.836C343.863 131.836 341.632 129.764 341.47 127.076C339.396 92.2471 339.947 64.8353 340.198 56.4794ZM353.534 62.1067L353.996 59.2809L352.129 58.8355L351.955 59.9084C351.91 60.1796 351.87 60.3132 351.603 60.3415C351.331 60.3861 350.829 60.3739 350.367 60.297C349.379 60.1351 348.565 59.6533 348.756 58.4955C348.913 57.5239 349.8 57.3376 350.979 57.1959C352.579 57.038 354.377 56.6292 354.741 54.4187C355.098 52.2366 353.684 50.7144 351.23 50.3136C350.003 50.1153 348.735 50.1517 347.836 50.4229L347.395 53.1313L349.229 53.5686L349.391 52.5808C349.436 52.3095 349.493 52.1759 349.76 52.1354C350.027 52.1071 350.477 52.1314 350.87 52.1921C351.688 52.3257 352.404 52.7589 352.246 53.7103C352.084 54.6981 351.226 54.8195 349.93 55.03C348.298 55.2729 346.573 55.5644 346.2 57.8315C345.823 60.1472 347.192 61.718 349.938 62.1674C351.096 62.3577 352.433 62.4184 353.534 62.1067Z" fill="#353159"/>
<path d="M357.057 132.225H358.171V171.333H357.057V132.225Z" fill="#353159"/>
<path d="M350.376 140.37H351.489V179.478H350.376V140.37Z" fill="#353159"/>
<path d="M353.716 147.706H354.83V203.821H353.716V147.706Z" fill="#353159"/>
<path d="M408.964 247.067C406.933 246.174 404.859 245.653 402.743 245.515L355.358 296.636C350.37 302.015 350.69 310.424 356.07 315.409C358.633 317.78 361.866 318.949 365.099 318.949C368.672 318.949 372.234 317.514 374.85 314.697L424.075 261.599C420.002 255.306 414.951 249.704 408.964 247.067Z" fill="#353159"/>
<path d="M466.472 217.791L475.266 217.653L457.731 240.306C457.348 240.806 457.008 241.327 456.71 241.869C456.221 243.123 455.742 244.367 455.274 245.6C454.211 250.458 455.912 255.71 460.113 258.952C462.537 260.823 465.398 261.726 468.237 261.726C472.214 261.726 476.138 259.951 478.765 256.571L513.209 212.061C516.335 208.022 516.867 202.547 514.58 197.987C512.326 193.48 507.721 190.641 502.692 190.641C502.617 190.641 502.553 190.641 502.479 190.641L485.571 190.907C491.207 184.37 497.47 178.363 503.149 173.069L494.397 162.641C484.518 178.002 474.862 198.104 466.472 217.791Z" fill="#353159"/>
<path d="M585.893 78.3321C582.554 75.0261 577.162 75.058 573.866 78.3959L548.929 103.59C552.927 109.479 554.363 116.771 552.959 123.702L585.956 90.355C589.264 87.0171 589.232 81.6382 585.893 78.3321Z" fill="#353159"/>
<path d="M512.997 140.679C511.391 141.891 509.764 143.315 508.137 144.942L519.069 157.964L532.691 144.197C530.872 144.591 529.001 144.803 527.108 144.803C522.067 144.803 517.229 143.368 512.997 140.679Z" fill="#353159"/>
<path d="M495.801 160.504L517.59 186.453C519.1 188.25 521.291 189.345 523.63 189.472C523.79 189.483 523.949 189.483 524.098 189.483C526.278 189.483 528.383 188.643 529.968 187.133L560.456 158.081C563.858 154.839 563.986 149.46 560.743 146.058C557.499 142.656 552.119 142.529 548.716 145.771L524.789 168.573L506.435 146.706C502.894 150.512 499.331 155.189 495.801 160.504Z" fill="#353159"/>
<path d="M503.596 132.951C494.77 131.93 474.087 129.549 453.212 147.046C429.349 167.042 359.154 210.754 349.828 216.537C351.264 221.416 357.729 240.848 370.724 246.716C376.615 249.374 383.187 248.874 390.269 245.239C394.098 243.272 397.873 242.284 401.573 242.284C404.519 242.284 407.422 242.911 410.261 244.165C425.51 250.894 434.709 273.93 438.112 284.135C445.747 260.908 479.244 163.332 510.306 138.744C508.318 137.097 506.627 135.204 505.244 133.153C504.745 133.078 504.202 133.014 503.596 132.951Z" fill="#353159"/>
<path d="M550.03 125.326C553.819 112.671 546.628 99.342 533.968 95.5548C521.309 91.7676 507.975 98.9563 504.187 111.611C500.398 124.266 507.59 137.595 520.249 141.382C532.908 145.169 546.242 137.981 550.03 125.326Z" fill="#353159"/>
<path d="M356.805 255.154L301.156 316.21L302.893 317.792L358.542 256.736L356.805 255.154Z" fill="#353159"/>
<path d="M355.651 277.379L300.002 338.435L301.739 340.017L357.388 278.961L355.651 277.379Z" fill="#353159"/>
<path d="M340.008 284.082L260.158 371.69L261.895 373.272L341.745 285.664L340.008 284.082Z" fill="#353159"/>
<path d="M547.153 195.621L491.504 256.677L493.241 258.259L548.89 197.203L547.153 195.621Z" fill="#353159"/>
<path d="M545.998 217.847L490.35 278.903L492.087 280.485L547.736 219.429L545.998 217.847Z" fill="#353159"/>
<path d="M530.351 224.545L450.502 312.153L452.239 313.735L532.088 226.127L530.351 224.545Z" fill="#353159"/>
<path d="M297.55 187.399C298.76 186.867 299.996 186.556 301.258 186.474L329.502 216.945C332.475 220.152 332.285 225.164 329.078 228.135C327.55 229.548 325.623 230.245 323.696 230.245C321.567 230.245 319.443 229.39 317.884 227.711L288.543 196.061C290.97 192.31 293.981 188.971 297.55 187.399Z" fill="#353159"/>
<path d="M263.271 169.949L258.029 169.867L268.482 183.369C268.71 183.667 268.913 183.978 269.09 184.301C269.382 185.048 269.667 185.79 269.946 186.525C270.58 189.42 269.566 192.551 267.062 194.483C265.617 195.598 263.912 196.137 262.219 196.137C259.849 196.137 257.51 195.079 255.944 193.064L235.414 166.534C233.55 164.126 233.233 160.863 234.596 158.144C235.94 155.458 238.684 153.766 241.682 153.766C241.727 153.766 241.765 153.766 241.809 153.766L251.887 153.924C248.528 150.027 244.795 146.447 241.41 143.292L246.626 137.076C252.515 146.232 258.27 158.214 263.271 169.949Z" fill="#353159"/>
<path d="M192.089 86.8227C194.08 84.8521 197.293 84.8711 199.258 86.8607L214.122 101.878C211.739 105.388 210.883 109.735 211.72 113.866L192.051 93.9891C190.08 91.9995 190.099 88.7933 192.089 86.8227Z" fill="#353159"/>
<path d="M235.54 123.985C236.497 124.708 237.467 125.557 238.437 126.526L231.92 134.288L223.801 126.083C224.885 126.317 226 126.444 227.129 126.444C230.133 126.444 233.017 125.588 235.54 123.985Z" fill="#353159"/>
<path d="M245.79 135.802L232.802 151.269C231.902 152.34 230.597 152.993 229.202 153.069C229.107 153.075 229.012 153.075 228.923 153.075C227.624 153.075 226.369 152.575 225.424 151.675L207.252 134.358C205.223 132.425 205.147 129.219 207.081 127.191C209.014 125.164 212.221 125.088 214.249 127.02L228.511 140.612L239.452 127.578C241.562 129.846 243.686 132.634 245.79 135.802Z" fill="#353159"/>
<path d="M241.143 119.379C246.404 118.77 258.732 117.351 271.175 127.781C285.398 139.699 327.239 165.754 332.798 169.201C331.942 172.11 328.088 183.692 320.343 187.19C316.831 188.774 312.914 188.476 308.692 186.309C306.411 185.137 304.16 184.548 301.955 184.548C300.199 184.548 298.468 184.922 296.776 185.669C287.687 189.68 282.204 203.411 280.175 209.494C275.624 195.649 255.658 137.488 237.143 122.832C238.328 121.85 239.336 120.722 240.16 119.499C240.458 119.455 240.781 119.417 241.143 119.379Z" fill="#353159"/>
<path d="M213.466 114.834C211.207 107.291 215.494 99.3458 223.04 97.0884C230.585 94.831 238.533 99.1159 240.791 106.659C243.049 114.202 238.763 122.147 231.217 124.404C223.671 126.662 215.724 122.377 213.466 114.834Z" fill="#353159"/>
<path d="M328.639 192.219L361.81 228.612L360.774 229.556L327.604 193.162L328.639 192.219Z" fill="#353159"/>
<path d="M329.328 205.467L362.498 241.86L361.463 242.803L328.292 206.41L329.328 205.467Z" fill="#353159"/>
<path d="M338.652 209.462L386.247 261.682L385.212 262.625L337.616 210.405L338.652 209.462Z" fill="#353159"/>
<path d="M215.18 156.734L248.351 193.127L247.315 194.07L214.145 157.677L215.18 156.734Z" fill="#353159"/>
<path d="M215.869 169.982L249.039 206.375L248.004 207.318L214.833 170.925L215.869 169.982Z" fill="#353159"/>
<path d="M225.195 173.975L272.79 226.194L271.755 227.137L224.159 174.918L225.195 173.975Z" fill="#353159"/>
<path d="M401.108 570.398L382.13 556.405C381.726 556.135 381.188 556.27 381.053 556.808C363.555 612.917 345.788 678.983 336.635 737.782C336.5 738.321 336.366 738.321 336.366 737.782C327.886 682.885 311.734 621.528 295.447 567.976C295.313 567.438 294.774 567.303 294.37 567.707L287.102 573.627C286.698 574.031 286.429 574.704 286.429 575.242L309.715 759.446C309.849 759.984 310.253 760.388 310.792 760.253C319.541 759.311 327.347 759.715 332.597 760.522C333.135 760.656 333.539 760.925 333.539 761.195C333.539 761.464 333.943 761.598 334.481 761.598C334.75 761.464 335.154 761.464 335.692 761.329C336.231 761.195 337.038 761.195 337.577 761.329C337.981 761.464 338.384 761.464 338.788 761.598C339.327 761.733 339.731 761.598 339.731 761.195C339.731 760.925 340.134 760.522 340.673 760.522C348.883 759.446 363.151 758.773 377.957 763.751C378.495 763.886 378.899 763.617 379.034 763.078C382.533 731.324 389.937 675.081 402.185 572.013C401.781 571.475 401.512 570.667 401.108 570.398Z" fill="#353159"/>
<path d="M449.969 701.453L440.277 783.261C440.277 783.8 440.547 784.068 441.085 783.934C447.007 781.781 452.93 780.032 458.987 778.552C459.525 778.417 459.929 777.879 459.795 777.341L450.238 701.587C450.103 700.915 449.969 700.914 449.969 701.453Z" fill="#353159"/>
<path d="M552.265 520.748C551.996 520.344 551.592 520.344 551.592 520.882C550.919 527.206 547.958 533.127 542.843 537.432L498.56 573.493C498.156 573.896 497.887 574.569 497.887 575.107L522.922 773.035C523.057 773.573 523.461 773.977 523.999 774.112C543.516 775.188 562.899 772.766 573.936 761.733C600.587 735.091 663.714 758.234 672.06 761.329C672.598 761.464 672.867 761.195 672.867 760.656C663.714 683.827 603.817 589.504 552.265 520.748Z" fill="#353159"/>
<path d="M238.377 701.452L228.82 781.647C228.82 782.185 229.09 782.723 229.628 782.992C232.589 784.069 235.55 785.145 238.377 786.356C241.607 787.702 245.107 788.643 248.607 788.643C249.145 788.643 249.549 788.239 249.414 787.701L238.512 701.452C238.512 700.914 238.377 700.914 238.377 701.452Z" fill="#353159"/>
<path d="M189.517 570.398L145.772 538.239C135.004 530.435 132.581 515.096 140.253 504.332C161.924 473.654 175.115 454.682 183.864 442.707C184.133 442.303 184.133 442.303 183.73 442.707C140.657 491.953 13.7292 646.017 0 760.925C0 761.464 0.269373 761.732 0.807774 761.598C9.15299 758.369 72.2804 735.36 98.9313 762.002C110.642 773.708 131.505 775.861 152.098 774.246C156.406 773.977 160.713 773.708 165.02 773.708C165.558 773.708 166.097 773.304 166.097 772.766C169.058 743.03 176.596 686.517 190.19 572.281C190.19 571.474 189.921 570.667 189.517 570.398Z" fill="#353159"/>
<path d="M450.373 413.105C474.197 413.105 493.579 393.729 493.579 369.913C493.579 346.097 474.197 326.722 450.373 326.722C426.548 326.722 407.166 346.097 407.166 369.913C407.166 393.729 426.548 413.105 450.373 413.105ZM417.261 387.002H447.546C448.085 387.002 448.488 387.405 448.488 387.943C448.084 391.307 445.796 402.206 432.471 402.206C419.146 402.206 416.857 391.307 416.453 387.943C416.319 387.405 416.723 387.002 417.261 387.002Z" fill="#353159"/>
<path d="M490.485 572.147C490.485 571.609 490.754 570.936 491.158 570.532L538.403 531.916C545.536 526.13 547.017 515.769 541.633 508.234C485.504 428.848 487.658 428.713 478.101 426.964C475.006 426.426 425.204 426.56 423.05 426.695C411.34 427.502 411.609 431.539 357.5 508.234C351.981 516.038 353.731 526.803 361.403 532.454L408.513 567.034C408.917 567.303 409.186 568.111 409.186 568.649L382.804 789.989C381.189 803.444 390.88 815.689 404.34 817.303C405.283 817.438 406.359 817.438 407.302 817.438C419.55 817.438 430.184 808.288 431.664 795.775L449.835 643.73C449.835 643.191 449.97 643.191 450.105 643.73L469.353 795.909C470.968 808.288 481.467 817.438 493.715 817.438C494.792 817.438 495.734 817.438 496.811 817.303C510.271 815.554 519.828 803.31 518.078 789.854L490.485 572.147ZM410.936 524.381C410.936 524.919 410.532 525.053 410.128 524.784L396.803 514.962C396.399 514.693 396.265 514.02 396.534 513.616L410.263 494.241C410.532 493.837 410.801 493.837 410.801 494.375V524.381H410.936ZM488.196 526.668V494.375C488.196 493.837 488.466 493.703 488.735 494.241L503.003 514.424C503.272 514.827 503.272 515.5 502.868 515.904L489.004 527.206C488.466 527.475 488.196 527.206 488.196 526.668Z" fill="#353159"/>
<path d="M238.78 413.105C262.604 413.105 281.987 393.729 281.987 369.913C281.987 346.097 262.604 326.722 238.78 326.722C214.956 326.722 195.573 346.097 195.573 369.913C195.573 393.729 214.956 413.105 238.78 413.105ZM239.722 387.002H270.007C270.546 387.002 270.949 387.405 270.949 387.943C270.546 391.307 268.257 402.206 254.932 402.206C241.607 402.206 239.318 391.307 238.915 387.943C238.78 387.405 239.184 387.002 239.722 387.002Z" fill="#353159"/>
<path d="M278.891 572.147C278.756 571.609 279.16 570.936 279.564 570.532L326.809 531.916C333.942 526.13 335.423 515.769 330.039 508.234C273.911 428.848 276.064 428.713 266.508 426.964C263.412 426.426 213.61 426.56 211.456 426.695C199.746 427.502 200.015 431.539 145.906 508.234C140.387 516.038 142.137 526.803 149.809 532.454L196.919 567.034C197.323 567.303 197.592 568.111 197.592 568.649L171.211 789.989C169.595 803.444 179.287 815.689 192.747 817.303C193.689 817.438 194.766 817.438 195.708 817.438C207.957 817.438 218.59 808.288 220.071 795.775L238.242 643.73C238.242 643.191 238.376 643.191 238.511 643.73L257.759 795.909C259.374 808.288 269.873 817.438 282.121 817.438C283.198 817.438 284.14 817.438 285.217 817.303C298.677 815.554 308.234 803.31 306.484 789.854L278.891 572.147ZM199.342 524.381C199.342 524.919 198.938 525.053 198.535 524.784L185.209 514.962C184.805 514.693 184.671 514.02 184.94 513.616L198.669 494.241C198.938 493.837 199.208 493.837 199.208 494.375V524.381H199.342ZM276.603 526.668V494.375C276.603 493.837 276.872 493.703 277.141 494.241L291.409 514.424C291.678 514.827 291.678 515.5 291.274 515.904L277.41 527.206C276.872 527.475 276.603 527.206 276.603 526.668Z" fill="#353159"/>
</g>
<defs>
<clipPath id="clip0_303_10911">
<rect width="673" height="818" fill="white"/>
</clipPath>
</defs>
</svg>
